<svg xmlns="http://www.w3.org/2000/svg" viewBox="0 8.859999656677246 256.57000732421875 37.0099983215332" data-asc="0.9052734375" width="256.57000732421875" height="37.0099983215332"><defs/><g><g><g transform="translate(0, 0)"><path d="M0 45.26L0 9.47L4.74 9.47L4.74 24.17L23.34 24.17L23.34 9.47L28.08 9.47L28.08 45.26L23.34 45.26L23.34 28.39L4.74 28.39L4.74 45.26L0 45.26ZM33.76 32.30Q33.76 25.10 37.77 21.63Q41.11 18.75 45.92 18.75Q51.27 18.75 54.66 22.25Q58.06 25.76 58.06 31.93Q58.06 36.94 56.56 39.81Q55.05 42.68 52.19 44.26Q49.32 45.85 45.92 45.85Q40.48 45.85 37.12 42.36Q33.76 38.87 33.76 32.30M38.28 32.30Q38.28 37.28 40.45 39.76Q42.63 42.24 45.92 42.24Q49.19 42.24 51.37 39.75Q53.54 37.26 53.54 32.15Q53.54 27.34 51.35 24.87Q49.17 22.39 45.92 22.39Q42.63 22.39 40.45 24.85Q38.28 27.32 38.28 32.30ZM61.45 37.52L65.80 36.84Q66.16 39.45 67.83 40.84Q69.51 42.24 72.51 42.24Q75.54 42.24 77.00 41.00Q78.47 39.77 78.47 38.11Q78.47 36.62 77.17 35.77Q76.27 35.18 72.68 34.28Q67.85 33.06 65.98 32.17Q64.11 31.27 63.15 29.70Q62.18 28.13 62.18 26.22Q62.18 24.49 62.98 23.01Q63.77 21.53 65.14 20.56Q66.16 19.80 67.93 19.27Q69.70 18.75 71.73 18.75Q74.78 18.75 77.09 19.63Q79.39 20.51 80.49 22.01Q81.59 23.51 82.01 26.03L77.71 26.61Q77.42 24.61 76.01 23.49Q74.61 22.36 72.05 22.36Q69.02 22.36 67.72 23.36Q66.43 24.37 66.43 25.71Q66.43 26.56 66.97 27.25Q67.50 27.95 68.65 28.42Q69.31 28.66 72.53 29.54Q77.20 30.79 79.04 31.58Q80.88 32.37 81.93 33.89Q82.98 35.40 82.98 37.65Q82.98 39.84 81.70 41.78Q80.42 43.73 78.00 44.79Q75.59 45.85 72.53 45.85Q67.48 45.85 64.83 43.75Q62.18 41.65 61.45 37.52ZM97.80 41.33L98.44 45.21Q96.58 45.61 95.12 45.61Q92.72 45.61 91.41 44.85Q90.09 44.09 89.55 42.86Q89.01 41.63 89.01 37.67L89.01 22.75L85.79 22.75L85.79 19.34L89.01 19.34L89.01 12.92L93.38 10.28L93.38 19.34L97.80 19.34L97.80 22.75L93.38 22.75L93.38 37.92Q93.38 39.79 93.62 40.33Q93.85 40.87 94.37 41.19Q94.90 41.50 95.87 41.50Q96.61 41.50 97.80 41.33ZM114.94 33.76L119.41 33.37Q119.73 36.06 120.89 37.78Q122.05 39.50 124.49 40.56Q126.93 41.63 129.98 41.63Q132.69 41.63 134.77 40.82Q136.84 40.01 137.85 38.61Q138.87 37.21 138.87 35.55Q138.87 33.86 137.89 32.60Q136.91 31.35 134.67 30.49Q133.23 29.93 128.30 28.75Q123.36 27.56 121.39 26.51Q118.82 25.17 117.57 23.18Q116.31 21.19 116.31 18.73Q116.31 16.02 117.85 13.66Q119.38 11.30 122.34 10.08Q125.29 8.86 128.91 8.86Q132.89 8.86 135.93 10.14Q138.96 11.43 140.60 13.92Q142.24 16.41 142.36 19.56L137.82 19.90Q137.45 16.50 135.34 14.77Q133.23 13.04 129.10 13.04Q124.80 13.04 122.84 14.61Q120.87 16.19 120.87 18.41Q120.87 20.34 122.27 21.58Q123.63 22.83 129.41 24.13Q135.18 25.44 137.33 26.42Q140.45 27.86 141.94 30.07Q143.43 32.28 143.43 35.16Q143.43 38.01 141.80 40.54Q140.16 43.07 137.10 44.47Q134.03 45.87 130.20 45.87Q125.34 45.87 122.06 44.46Q118.77 43.04 116.91 40.20Q115.04 37.35 114.94 33.76ZM154.13 45.26L146.19 19.34L150.73 19.34L154.86 34.30L156.40 39.87Q156.49 39.45 157.74 34.52L161.87 19.34L166.38 19.34L170.26 34.38L171.56 39.33L173.05 34.33L177.49 19.34L181.76 19.34L173.66 45.26L169.09 45.26L164.97 29.74L163.96 25.32L158.72 45.26L154.13 45.26ZM185.47 14.53L185.47 9.47L189.87 9.47L189.87 14.53L185.47 14.53M185.47 45.26L185.47 19.34L189.87 19.34L189.87 45.26L185.47 45.26ZM206.15 41.33L206.79 45.21Q204.93 45.61 203.47 45.61Q201.07 45.61 199.76 44.85Q198.44 44.09 197.90 42.86Q197.36 41.63 197.36 37.67L197.36 22.75L194.14 22.75L194.14 19.34L197.36 19.34L197.36 12.92L201.73 10.28L201.73 19.34L206.15 19.34L206.15 22.75L201.73 22.75L201.73 37.92Q201.73 39.79 201.97 40.33Q202.20 40.87 202.72 41.19Q203.25 41.50 204.22 41.50Q204.96 41.50 206.15 41.33ZM227.37 35.77L231.69 36.33Q230.98 40.80 228.06 43.32Q225.15 45.85 220.90 45.85Q215.58 45.85 212.34 42.37Q209.11 38.89 209.11 32.40Q209.11 28.20 210.50 25.05Q211.89 21.90 214.73 20.32Q217.58 18.75 220.92 18.75Q225.15 18.75 227.83 20.89Q230.52 23.02 231.27 26.95L227.00 27.61Q226.39 25 224.84 23.68Q223.29 22.36 221.09 22.36Q217.77 22.36 215.70 24.74Q213.62 27.12 213.62 32.28Q213.62 37.50 215.63 39.87Q217.63 42.24 220.85 42.24Q223.44 42.24 225.17 40.65Q226.90 39.06 227.37 35.77ZM235.45 45.26L235.45 9.47L239.84 9.47L239.84 22.31Q242.92 18.75 247.61 18.75Q250.49 18.75 252.61 19.89Q254.74 21.02 255.65 23.02Q256.57 25.02 256.57 28.83L256.57 45.26L252.17 45.26L252.17 28.83Q252.17 25.54 250.74 24.04Q249.32 22.53 246.70 22.53Q244.75 22.53 243.03 23.55Q241.31 24.56 240.58 26.29Q239.84 28.03 239.84 31.08L239.84 45.26L235.45 45.26Z"/></g></g></g></svg>